<?xml version="1.0" encoding="utf-8"?>
<!-- Generator: Adobe Illustrator 17.0.0, SVG Export Plug-In . SVG Version: 6.00 Build 0)  -->
<!DOCTYPE svg PUBLIC "-//W3C//DTD SVG 1.1//EN" "http://www.w3.org/Graphics/SVG/1.1/DTD/svg11.dtd">
<svg version="1.1" id="Layer_1" xmlns="http://www.w3.org/2000/svg" xmlns:xlink="http://www.w3.org/1999/xlink" x="0px" y="0px"
	 width="278.449px" height="197.414px" viewBox="0 0 278.449 197.414" enable-background="new 0 0 278.449 197.414"
	 xml:space="preserve">
<g>
	<path fill="#FFDF9E" stroke="#FFDF9E" stroke-miterlimit="10" d="M102.683,49.275c10.109-4.402,22.662-6.777,35.287-6.777
		c12.642,0,24.099,2.383,34.22,6.803c-19,0.582-34.224,16.154-34.227,35.293C137.958,65.105,122.169,49.303,102.683,49.275z"/>
	<path fill="#EC2227" d="M101.62,78.752c-3.184,0-5.764,2.58-5.764,5.764c0,3.188,2.58,5.766,5.764,5.766s5.764-2.578,5.764-5.766
		C107.383,81.332,104.803,78.752,101.62,78.752z"/>
	<path fill="#07A64F" d="M172.682,78.672c-3.184,0-5.766,2.578-5.766,5.766s2.582,5.766,5.766,5.766
		c3.184,0,5.762-2.578,5.762-5.766S175.866,78.672,172.682,78.672z"/>
	<g>
		<path fill="#010101" d="M102.498,67.365c-9.471,0-17.148,7.68-17.148,17.15c0,9.477,7.678,17.148,17.148,17.148
			c9.473,0,17.15-7.672,17.15-17.148C119.649,75.045,111.971,67.365,102.498,67.365z M102.498,96.398
			c-6.563,0-11.883-5.32-11.883-11.883c0-6.564,5.32-11.885,11.883-11.885c6.564,0,11.885,5.32,11.885,11.885
			C114.383,91.078,109.063,96.398,102.498,96.398z M209.209,49.768h-23.613c-12.043-8.104-28.488-13.166-47.348-13.166
			c-18.867,0-36.441,5.059-48.484,13.166H67.27c3.668,4.291,6.383,10.098,7.059,14.086c-4.24,5.826-6.752,12.992-6.752,20.748
			c0,19.516,15.818,35.336,35.332,35.336c11.072,0,20.951-5.102,27.43-13.07c2.643,3.086,7.016,9.297,7.902,11.101
			c0,0,5.074-7.578,7.926-11.07c6.477,7.953,16.348,13.039,27.406,13.039c19.512,0,35.332-15.82,35.332-35.336
			c0-7.752-2.516-14.912-6.754-20.736C202.823,59.877,205.538,54.064,209.209,49.768z M102.909,113.047
			c-15.709,0-28.443-12.734-28.443-28.445c0-15.705,12.734-28.441,28.443-28.441s28.445,12.736,28.445,28.441
			C131.354,100.313,118.618,113.047,102.909,113.047z M102.963,49.275c10.109-4.402,22.662-6.777,35.285-6.777
			c12.645,0,24.102,2.383,34.223,6.803c-19,0.582-34.227,16.154-34.23,35.293C138.237,65.105,122.448,49.303,102.963,49.275z
			 M173.573,113.047c-15.711,0-28.445-12.734-28.445-28.445c0-15.705,12.734-28.441,28.445-28.441
			c15.707,0,28.441,12.736,28.441,28.441C202.014,100.313,189.28,113.047,173.573,113.047z M173.561,67.287
			c-9.473,0-17.148,7.676-17.148,17.15c0,9.469,7.676,17.148,17.148,17.148c9.469,0,17.148-7.68,17.148-17.148
			C190.709,74.963,183.03,67.287,173.561,67.287z M173.561,96.32c-6.563,0-11.883-5.32-11.883-11.883
			c0-6.566,5.32-11.887,11.883-11.887s11.883,5.32,11.883,11.887C185.444,91,180.123,96.32,173.561,96.32z"/>
		<g>
			<g>
				<path d="M217.155,55.488h-1.117v-4.695h1.664c0.836,0,1.898,0.102,1.898,1.361c0,0.596-0.262,1.051-0.984,1.248l1.125,2.086
					h-1.23l-0.977-1.92h-0.379V55.488z M217.155,52.82c0.641,0,0.738,0,0.898-0.051c0.359-0.115,0.387-0.371,0.387-0.627
					c0-0.326-0.113-0.486-0.336-0.563c-0.176-0.059-0.316-0.059-0.949-0.059V52.82z"/>
			</g>
			<path d="M217.889,49.031c-2.359,0-4.27,1.912-4.27,4.27c0,2.357,1.91,4.268,4.27,4.268c2.359,0,4.27-1.91,4.27-4.268
				C222.159,50.943,220.248,49.031,217.889,49.031z M217.889,56.77c-1.914,0-3.469-1.553-3.469-3.469
				c0-1.916,1.555-3.469,3.469-3.469c1.914,0,3.469,1.553,3.469,3.469C221.358,55.217,219.803,56.77,217.889,56.77z"/>
		</g>
	</g>
</g>
<g>
	<g>
		<g>
			<path fill="#07A64F" d="M246.428,153.297h-1.117v-4.695h1.664c0.836,0,1.898,0.102,1.898,1.367c0,0.594-0.262,1.047-0.984,1.242
				l1.125,2.086h-1.23l-0.977-1.914h-0.379V153.297z M246.428,150.633c0.641,0,0.738,0,0.898-0.055
				c0.359-0.109,0.387-0.367,0.387-0.625c0-0.328-0.113-0.484-0.336-0.563c-0.176-0.055-0.316-0.055-0.949-0.055V150.633z"/>
		</g>
		<path fill="#07A64F" d="M247.163,146.844c-2.359,0-4.27,1.906-4.27,4.266c0,2.359,1.91,4.273,4.27,4.273
			c2.359,0,4.27-1.914,4.27-4.273C251.432,148.75,249.522,146.844,247.163,146.844z M247.163,154.578
			c-1.914,0-3.469-1.555-3.469-3.469c0-1.914,1.555-3.469,3.469-3.469c1.914,0,3.469,1.555,3.469,3.469
			C250.631,153.023,249.077,154.578,247.163,154.578z"/>
	</g>
	<g>
		<path d="M41.467,152.602v-3.875h-6.313v-5.797l-4.854,1.445v4.352h-3.721v3.875h3.721v12.422c0,5.523,2.256,8.328,6.709,8.328
			c1.598,0,2.988-0.219,4.131-0.648l0.139-0.055l-0.219-3.82l-0.242,0.07c-0.648,0.188-1.502,0.281-2.537,0.281
			c-1.1,0-1.877-0.328-2.371-1c-0.502-0.688-0.756-1.852-0.756-3.445v-12.133H41.467z"/>
		<path d="M58.235,148.289c-0.521-0.07-0.93-0.102-1.25-0.102c-1.49,0-2.889,0.484-4.156,1.438c-1.057,0.789-1.895,1.852-2.5,3.164
			l-0.252-4.063h-4.414l0.014,0.211c0.131,1.945,0.195,4.477,0.195,7.523v16.352h4.951v-12.727c0-2.32,0.58-4.125,1.723-5.375
			c1.137-1.234,2.516-1.867,4.098-1.867c0.584,0,1.098,0.047,1.523,0.141l0.242,0.055v-4.727L58.235,148.289z"/>
		<g>
			<rect x="62.711" y="148.726" width="4.951" height="24.086"/>
			<path d="M65.163,144.82c0.934,0,1.697-0.305,2.271-0.891c0.574-0.594,0.865-1.328,0.865-2.195c0-0.852-0.297-1.578-0.879-2.164
				c-0.582-0.578-1.326-0.875-2.209-0.875c-0.916,0-1.676,0.297-2.258,0.875c-0.584,0.586-0.879,1.313-0.879,2.164
				c0,0.867,0.291,1.602,0.865,2.195C63.514,144.516,64.262,144.82,65.163,144.82z"/>
		</g>
		<path d="M91.776,151.547c-1.932-2.305-4.383-3.477-7.289-3.477c-3.52,0-6.271,1.383-8.191,4.109l-0.201-3.57h-4.502l0.021,0.336
			c0.123,1.992,0.186,4.602,0.186,7.766v25.914h4.963v-12.328c0.688,0.898,1.564,1.625,2.615,2.164
			c1.318,0.672,2.787,1.008,4.365,1.008c3.104,0,5.73-1.203,7.807-3.57c2.066-2.359,3.113-5.563,3.113-9.523
			C94.663,156.813,93.692,153.836,91.776,151.547z M79.606,153.477c1.055-0.758,2.227-1.148,3.486-1.148
			c1.99,0,3.543,0.75,4.744,2.297c1.205,1.555,1.816,3.555,1.816,5.945c0,2.672-0.619,4.82-1.838,6.375
			c-1.219,1.555-2.824,2.313-4.91,2.313c-1.684,0-3.143-0.625-4.338-1.852c-1.197-1.227-1.805-2.766-1.805-4.578v-3.82
			c0-0.68,0.213-1.586,0.631-2.711C77.803,155.195,78.547,154.25,79.606,153.477z"/>
		<path fill="#07A64F" d="M116.809,172.578c-0.258-1.414-0.389-3.313-0.389-5.641v-8.664c0-3.234-0.813-5.75-2.414-7.477
			c-1.608-1.734-4.008-2.609-7.133-2.609c-3.188,0-5.973,0.734-8.279,2.188l-0.135,0.078l1.162,3.375l0.213-0.133
			c1.852-1.18,3.988-1.781,6.354-1.781c1.748,0,3.078,0.453,3.955,1.352c0.881,0.891,1.326,2.164,1.326,3.781v0.242
			c-4.713,0.023-8.361,0.797-10.842,2.305c-2.547,1.547-3.84,3.82-3.84,6.758c0,1.922,0.703,3.586,2.09,4.945
			c1.387,1.367,3.254,2.055,5.549,2.055c3.101,0,5.578-1.109,7.369-3.297l0.488,2.758h4.568L116.809,172.578z M109.87,168.023
			c-1.129,1.031-2.551,1.555-4.219,1.555c-1.166,0-2.111-0.344-2.812-1.016c-0.697-0.664-1.051-1.609-1.051-2.805
			c0-1.531,0.697-2.711,2.133-3.594c1.418-0.875,3.99-1.328,7.646-1.344v3.719C111.567,165.828,110.997,167,109.87,168.023z"/>
		<path fill="#07A64F" d="M141.881,172.93l-0.027-0.344c-0.121-1.492-0.184-3.57-0.184-6.188v-28.953h-4.965v13.578
			c-0.654-0.781-1.475-1.43-2.447-1.938c-1.289-0.68-2.768-1.016-4.393-1.016c-3.043,0-5.633,1.234-7.693,3.672
			c-2.049,2.422-3.086,5.594-3.086,9.422c0,3.531,0.986,6.5,2.936,8.805c1.959,2.32,4.443,3.5,7.379,3.5
			c1.818,0,3.469-0.43,4.906-1.289c1.143-0.68,2.082-1.594,2.805-2.711l0.27,3.461H141.881z M136.706,158.664v3.766
			c0,2.039-0.619,3.688-1.844,4.906c-1.227,1.211-2.641,1.828-4.205,1.828c-2.08,0-3.654-0.758-4.81-2.32
			c-1.16-1.57-1.75-3.578-1.75-5.977c0-2.555,0.623-4.656,1.852-6.242c1.225-1.578,2.797-2.344,4.803-2.344
			c1.625,0,3.037,0.586,4.201,1.75C136.116,155.195,136.706,156.758,136.706,158.664z"/>
		<path fill="#07A64F" d="M162.206,148.727c0,0-6.18,12.617-6.621,14.039c-0.559-1.711-6.703-14.039-6.703-14.039h-5.375
			l12.101,24.086l11.883-24.086H162.206z"/>
		<g>
			<rect x="169.889" y="148.726" fill="#07A64F" width="4.953" height="24.086"/>
			<path fill="#07A64F" d="M172.342,144.82c0.934,0,1.699-0.305,2.273-0.891c0.57-0.594,0.863-1.328,0.863-2.195
				c0-0.852-0.297-1.578-0.879-2.164c-0.582-0.578-1.328-0.875-2.211-0.875c-0.914,0-1.676,0.297-2.258,0.875
				c-0.582,0.586-0.875,1.313-0.875,2.164c0,0.867,0.289,1.602,0.863,2.195C170.694,144.516,171.44,144.82,172.342,144.82z"/>
		</g>
		<path fill="#07A64F" d="M194.373,161.625c-1.012-1.133-2.695-2.125-5-2.953c-1.84-0.656-3.066-1.266-3.637-1.813
			c-0.559-0.539-0.832-1.18-0.832-1.961c0-0.875,0.32-1.578,0.98-2.141c0.664-0.555,1.582-0.844,2.734-0.844
			c1.703,0,3.379,0.469,4.992,1.391l0.207,0.125l1.258-3.664l-0.141-0.086c-1.688-0.992-3.762-1.492-6.168-1.492
			c-2.602,0-4.715,0.703-6.289,2.078c-1.578,1.391-2.379,3.125-2.379,5.172c0,3.063,2.234,5.383,6.645,6.891
			c1.613,0.547,2.754,1.125,3.391,1.727c0.625,0.602,0.926,1.344,0.926,2.297c0,0.984-0.363,1.75-1.121,2.336
			c-0.758,0.586-1.863,0.891-3.277,0.891c-2.008,0-3.98-0.586-5.867-1.734l-0.219-0.133l-1.203,3.875l0.145,0.078
			c2.059,1.117,4.43,1.688,7.047,1.688c2.856,0,5.149-0.68,6.817-2.023c1.683-1.359,2.535-3.164,2.535-5.367
			C195.916,164.234,195.397,162.781,194.373,161.625z"/>
		<path fill="#07A64F" d="M218.627,151.641c-2.121-2.289-4.918-3.453-8.309-3.453c-3.402,0-6.262,1.172-8.5,3.477
			c-2.234,2.305-3.367,5.43-3.367,9.305c0,3.641,1.098,6.641,3.262,8.93c2.168,2.289,4.953,3.453,8.281,3.453
			c2.133,0,4.145-0.531,5.98-1.57c1.84-1.039,3.289-2.547,4.309-4.484c1.02-1.93,1.535-4.203,1.535-6.773
			C221.819,156.914,220.745,153.93,218.627,151.641z M209.995,169.578c-1.91,0-3.523-0.828-4.793-2.461
			c-1.285-1.641-1.934-3.766-1.934-6.297c0-2.539,0.625-4.68,1.855-6.359c1.215-1.656,2.902-2.5,5.012-2.5
			c2.074,0,3.738,0.852,4.938,2.523c1.219,1.695,1.836,3.781,1.836,6.188c0,2.617-0.672,4.781-1.992,6.43
			C213.608,168.742,211.952,169.578,209.995,169.578z"/>
		<path fill="#07A64F" d="M238.44,148.289c-0.519-0.07-0.93-0.102-1.25-0.102c-1.488,0-2.887,0.484-4.156,1.438
			c-1.055,0.789-1.895,1.852-2.5,3.164l-0.25-4.063h-4.414l0.012,0.211c0.129,1.945,0.195,4.477,0.195,7.523v16.352h4.953v-12.727
			c0-2.32,0.578-4.125,1.723-5.375c1.137-1.234,2.516-1.867,4.098-1.867c0.582,0,1.098,0.047,1.523,0.141l0.242,0.055v-4.727
			L238.44,148.289z"/>
	</g>
</g>
</svg>
